<svg xmlns="http://www.w3.org/2000/svg" version="1.1" xmlns:xlink="http://www.w3.org/1999/xlink" xmlns:svgjs="http://svgjs.dev/svgjs" width="2000" height="1500" viewBox="0 0 2000 1500"><rect width="2000" height="1500" fill="#ffffff"></rect><g transform="matrix(0.45351473922902497,0,0,0.45351473922902497,546.0712182873765,250.40485829959516)"><svg viewBox="0 0 224 247" data-background-color="#ffffff" preserveAspectRatio="xMidYMid meet" height="2205" width="2000" xmlns="http://www.w3.org/2000/svg" xmlns:xlink="http://www.w3.org/1999/xlink"><g id="tight-bounds" transform="matrix(1,0,0,1,0.10225193174949254,-0.09999999999999432)"><svg viewBox="0 0 223.795496136501 247.2" height="247.2" width="223.795496136501"><g><svg></svg></g><g><svg viewBox="0 0 223.795496136501 247.2" height="247.2" width="223.795496136501"><g transform="matrix(1,0,0,1,0,47.215199999999996)"><svg viewBox="0 0 223.795496136501 152.7696" height="152.7696" width="223.795496136501"><g><svg viewBox="0 0 223.795496136501 152.7696" height="152.7696" width="223.795496136501"><g><svg viewBox="0 0 223.795496136501 152.7696" height="152.7696" width="223.795496136501"><g><svg viewBox="0 0 223.795496136501 152.7696" height="152.7696" width="223.795496136501"><g id="textblocktransform"><svg viewBox="0 0 223.795496136501 152.7696" height="152.7696" width="223.795496136501" id="textblock"><g><svg viewBox="0 0 223.795496136501 152.7696" height="152.7696" width="223.795496136501"><g transform="matrix(1,0,0,1,0,0)"><svg width="223.795496136501" viewBox="-2.8 -39.01 62.529999999999994 43.01" height="152.7696" data-palette-color="#0072ff"><path d="M1.2-24.51L1.2-24.51Q1.2-26.68 2.03-28.59 2.86-30.49 4.28-31.92 5.71-33.35 7.62-34.18 9.52-35.01 11.69-35.01L11.69-35.01 27.76-35.01 27.76-28 11.69-28Q10.96-28 10.33-27.73 9.69-27.47 9.22-26.99 8.74-26.51 8.47-25.88 8.2-25.24 8.2-24.51L8.2-24.51Q8.2-23.78 8.47-23.13 8.74-22.49 9.22-22.01 9.69-21.53 10.33-21.26 10.96-21 11.69-21L11.69-21 18.7-21Q20.87-21 22.79-20.18 24.71-19.36 26.14-17.93 27.56-16.5 28.38-14.59 29.2-12.67 29.2-10.5L29.2-10.5Q29.2-8.33 28.38-6.42 27.56-4.52 26.14-3.09 24.71-1.66 22.79-0.83 20.87 0 18.7 0L18.7 0 3.15 0 3.15-7.01 18.7-7.01Q19.43-7.01 20.07-7.28 20.7-7.54 21.18-8.02 21.66-8.5 21.92-9.13 22.19-9.77 22.19-10.5L22.19-10.5Q22.19-11.23 21.92-11.87 21.66-12.5 21.18-12.98 20.7-13.45 20.07-13.72 19.43-13.99 18.7-13.99L18.7-13.99 11.69-13.99Q9.52-13.99 7.62-14.82 5.71-15.65 4.28-17.08 2.86-18.51 2.03-20.42 1.2-22.34 1.2-24.51ZM47.43 0L47.43 0 32.2 0 32.2-6.64 47.43-6.64Q48.12-6.64 48.61-7.13 49.09-7.62 49.09-8.3L49.09-8.3Q49.09-9.01 48.61-9.23 48.12-9.45 47.43-9.45L47.43-9.45 40.5-9.45Q38.77-9.45 37.25-10.11 35.74-10.77 34.62-11.9 33.49-13.04 32.85-14.55 32.2-16.06 32.2-17.8L32.2-17.8Q32.2-19.53 32.85-21.04 33.49-22.56 34.62-23.68 35.74-24.8 37.25-25.45 38.77-26.1 40.5-26.1L40.5-26.1 54-26.1 54-19.46 40.5-19.46Q39.82-19.46 39.33-18.97 38.84-18.48 38.84-17.8L38.84-17.8Q38.84-17.09 39.33-16.59 39.82-16.09 40.5-16.09L40.5-16.09 47.43-16.09Q49.14-16.09 50.66-15.52 52.17-14.94 53.29-13.92 54.42-12.89 55.08-11.45 55.73-10.01 55.73-8.3L55.73-8.3Q55.73-6.57 55.08-5.07 54.42-3.56 53.29-2.43 52.17-1.29 50.66-0.65 49.14 0 47.43 0Z" opacity="1" transform="matrix(1,0,0,1,0,0)" fill="#0072ff" class="wordmark-text-0" data-fill-palette-color="primary" id="text-0"></path></svg></g></svg></g></svg></g></svg></g><g></g></svg></g></svg></g></svg></g><path d="M0 41.215L0 1 223.795 1 223.795 41.215 212.314 41.215 212.314 12.481 11.481 12.481 11.481 41.215 0 41.215M0 205.985L0 246.2 223.795 246.2 223.795 205.985 212.314 205.985 212.314 234.719 11.481 234.719 11.481 205.985 0 205.985" fill="#00c6ff" stroke="transparent" data-fill-palette-color="tertiary"></path></svg></g><defs></defs></svg><rect width="223.795496136501" height="247.2" fill="none" stroke="none" visibility="hidden"></rect></g></svg></g></svg>